<svg width="32" height="32" viewBox="0 0 32 32" fill="none" xmlns="http://www.w3.org/2000/svg">
<path d="M27.7699 5.33591C25.2328 5.48401 20.1901 6.02305 17.0771 7.98304C16.8623 8.11828 16.7405 8.35876 16.7405 8.61018V25.9372C16.7405 26.4872 17.3253 26.8349 17.8183 26.5796C21.0212 24.9215 25.6532 24.4692 27.9435 24.3453C28.7255 24.303 29.3334 23.6582 29.3334 22.8854V6.79781C29.3338 5.95448 28.6227 5.28639 27.7699 5.33591ZM14.9229 7.98304C11.8104 6.02305 6.76768 5.48448 4.2306 5.33591C3.37781 5.28639 2.66669 5.95448 2.66669 6.79781V22.8858C2.66669 23.6592 3.27457 24.3039 4.05653 24.3458C6.34777 24.4696 10.9821 24.9225 14.1849 26.5815C14.6766 26.8363 15.2595 26.4891 15.2595 25.9406V8.60161C15.2595 8.34971 15.1382 8.11876 14.9229 7.98304Z" fill="#212121"/>
</svg>
