<?xml version="1.0" standalone="no"?>
<!DOCTYPE svg PUBLIC "-//W3C//DTD SVG 20010904//EN"
 "http://www.w3.org/TR/2001/REC-SVG-20010904/DTD/svg10.dtd">
<svg version="1.0" xmlns="http://www.w3.org/2000/svg"
 width="48.000000pt" height="48.000000pt" viewBox="0 0 48.000000 48.000000"
 preserveAspectRatio="xMidYMid meet">

<g transform="translate(0.000000,48.000000) scale(0.100000,-0.100000)"
fill="#fff" stroke="none">
<path d="M57 382 c-10 -10 -17 -33 -17 -50 0 -29 2 -31 29 -26 34 7 95 -11
134 -39 36 -28 67 -94 67 -145 l0 -42 68 0 c99 0 102 5 102 162 0 167 11 158
-202 158 -147 0 -167 -2 -181 -18z"/>
<path d="M51 281 c-19 -12 -5 -30 18 -24 30 8 85 -14 116 -47 21 -22 29 -42
33 -80 5 -58 25 -64 30 -9 4 54 -35 120 -88 147 -46 23 -85 28 -109 13z"/>
<path d="M51 211 c-21 -14 -5 -28 28 -23 40 6 74 -28 69 -70 -3 -36 17 -50 27
-18 9 29 -3 75 -24 94 -22 20 -81 30 -100 17z"/>
<path d="M54 136 c-10 -26 4 -48 28 -44 33 4 33 52 0 56 -13 2 -25 -3 -28 -12z"/>
</g>
</svg>
