<?xml version="1.0" standalone="no"?>
<!DOCTYPE svg PUBLIC "-//W3C//DTD SVG 20010904//EN"
        "http://www.w3.org/TR/2001/REC-SVG-20010904/DTD/svg10.dtd">
<svg version="1.0" xmlns="http://www.w3.org/2000/svg"
     width="48.000000pt" height="48.000000pt" viewBox="0 0 48.000000 48.000000"
     preserveAspectRatio="xMidYMid meet">

    <g transform="translate(0.000000,48.000000) scale(0.100000,-0.100000)"
       fill="#fff" stroke="none">
        <path d="M57 382 c-21 -23 -22 -62 -3 -62 8 0 16 10 18 23 3 22 5 22 168 22
l165 0 0 -125 0 -125 -62 -3 c-47 -2 -63 -7 -63 -17 0 -12 15 -15 63 -15 93 0
97 7 97 162 0 167 11 158 -202 158 -147 0 -167 -2 -181 -18z"/>
        <path d="M48 284 c-16 -16 -7 -24 30 -24 79 0 142 -63 142 -143 0 -45 23 -47
28 -2 5 44 -26 112 -64 142 -35 26 -121 43 -136 27z"/>
        <path d="M51 211 c-21 -14 -5 -28 28 -23 40 6 74 -28 69 -70 -3 -36 17 -50 27
-18 9 29 -3 75 -24 94 -22 20 -81 30 -100 17z"/>
        <path d="M54 136 c-10 -26 4 -48 28 -44 33 4 33 52 0 56 -13 2 -25 -3 -28 -12z"/>
    </g>
</svg>
