<svg width="32" height="32" viewBox="0 0 32 32" fill="none" xmlns="http://www.w3.org/2000/svg">
<path fill-rule="evenodd" clip-rule="evenodd" d="M3.99998 16C3.99998 9.37259 9.37256 4.00001 16 4.00001C22.6274 4.00001 28 9.37259 28 16C28 22.6274 22.6274 28 16 28C9.37256 28 3.99998 22.6274 3.99998 16ZM16 1.33334C7.8998 1.33334 1.33331 7.89983 1.33331 16C1.33331 24.1002 7.8998 30.6667 16 30.6667C24.1002 30.6667 30.6666 24.1002 30.6666 16C30.6666 7.89983 24.1002 1.33334 16 1.33334ZM24.565 12.2471C24.9822 11.8525 24.9822 11.1885 24.565 10.7939L23.7076 9.98312C23.3221 9.61854 22.7189 9.61854 22.3334 9.98312L13.5469 18.2924L9.66653 14.6228C9.28101 14.2582 8.67786 14.2582 8.29234 14.6228L7.43494 15.4336C7.01774 15.8281 7.01774 16.4922 7.43495 16.8867L12.8598 22.0169C13.2453 22.3815 13.8485 22.3815 14.234 22.0169L24.565 12.2471Z" fill="#212121"/>
</svg>
