<svg width="24" height="25" viewBox="0 0 24 25" fill="none" xmlns="http://www.w3.org/2000/svg">
<path fill-rule="evenodd" clip-rule="evenodd" d="M22 12.5C22 18.0228 17.5228 22.5 12 22.5C6.47715 22.5 2 18.0228 2 12.5C2 6.97715 6.47715 2.5 12 2.5C17.5228 2.5 22 6.97715 22 12.5ZM12 6.5C12.5523 6.5 13 6.94772 13 7.5V15.0858L15.2929 12.7929C15.6834 12.4024 16.3166 12.4024 16.7071 12.7929C17.0976 13.1834 17.0976 13.8166 16.7071 14.2071L12.7071 18.2071C12.5196 18.3946 12.2652 18.5 12 18.5C11.7348 18.5 11.4804 18.3946 11.2929 18.2071L7.29289 14.2071C6.90237 13.8166 6.90237 13.1834 7.29289 12.7929C7.68342 12.4024 8.31658 12.4024 8.70711 12.7929L11 15.0858V7.5C11 6.94772 11.4477 6.5 12 6.5Z" fill="#56AA68"/>
<path d="M22 12.5C22 18.0228 17.5228 22.5 12 22.5C6.47715 22.5 2 18.0228 2 12.5C2 6.97715 6.47715 2.5 12 2.5C17.5228 2.5 22 6.97715 22 12.5ZM4 12.5C4 16.9183 7.58172 20.5 12 20.5C16.4183 20.5 20 16.9183 20 12.5C20 8.08172 16.4183 4.5 12 4.5C7.58172 4.5 4 8.08172 4 12.5Z" fill="#56AA68"/>
</svg>
