<svg width="32" height="32" viewBox="0 0 32 32" fill="none" xmlns="http://www.w3.org/2000/svg">
<path fill-rule="evenodd" clip-rule="evenodd" d="M16 26.6667C21.8911 26.6667 26.6667 21.891 26.6667 16C26.6667 10.109 21.8911 5.33332 16 5.33332C10.109 5.33332 5.33335 10.109 5.33335 16C5.33335 21.891 10.109 26.6667 16 26.6667ZM16 29.3333C23.3638 29.3333 29.3334 23.3638 29.3334 16C29.3334 8.63619 23.3638 2.66666 16 2.66666C8.63622 2.66666 2.66669 8.63619 2.66669 16C2.66669 23.3638 8.63622 29.3333 16 29.3333ZM16 7.99999C16.7364 7.99999 17.3334 8.59694 17.3334 9.33332V19.4477L20.3905 16.3905C20.9112 15.8698 21.7555 15.8698 22.2762 16.3905C22.7969 16.9112 22.7969 17.7554 22.2762 18.2761L16.9428 23.6095C16.6928 23.8595 16.3536 24 16 24C15.6464 24 15.3073 23.8595 15.0572 23.6095L9.72388 18.2761C9.20318 17.7554 9.20318 16.9112 9.72388 16.3905C10.2446 15.8698 11.0888 15.8698 11.6095 16.3905L14.6667 19.4477V9.33332C14.6667 8.59694 15.2636 7.99999 16 7.99999Z" fill="#212121"/>
</svg>
