<?xml version="1.0" standalone="no"?>
<!DOCTYPE svg PUBLIC "-//W3C//DTD SVG 20010904//EN"
 "http://www.w3.org/TR/2001/REC-SVG-20010904/DTD/svg10.dtd">
<svg version="1.0" xmlns="http://www.w3.org/2000/svg"
 width="450.000000pt" height="450.000000pt" viewBox="0 0 450.000000 450.000000"
 preserveAspectRatio="xMidYMid meet">

<g transform="translate(0.000000,450.000000) scale(0.100000,-0.100000)"
fill="#fff" stroke="none">
<path d="M4220 4470 c-184 -48 -1765 -449 -2480 -629 l-265 -67 -3 -1197 -2
-1196 -65 45 c-69 48 -186 106 -250 123 -129 34 -321 30 -444 -10 -346 -111
-567 -429 -548 -789 7 -132 25 -201 83 -318 105 -209 309 -366 539 -413 358
-74 714 104 871 436 77 162 74 119 74 1249 l0 1005 33 9 c17 5 221 57 452 116
231 58 739 187 1129 286 390 99 715 180 723 180 11 0 13 -111 13 -640 0 -352
-2 -640 -5 -640 -3 0 -26 16 -52 36 -61 46 -160 96 -248 124 -94 30 -272 38
-371 17 -435 -93 -707 -504 -618 -935 56 -273 263 -503 529 -588 118 -38 297
-44 420 -15 241 58 447 231 543 458 65 155 62 60 62 1801 0 870 -3 1581 -7
1581 -5 -1 -55 -14 -113 -29z"/>
</g>
</svg>
