<svg width="25" height="24" viewBox="0 0 25 24" fill="none" xmlns="http://www.w3.org/2000/svg">
<path fill-rule="evenodd" clip-rule="evenodd" d="M16.5 4H6.5C5.94771 4 5.5 4.44772 5.5 5V19C5.5 19.5523 5.94772 20 6.5 20H16.5C17.0523 20 17.5 19.5523 17.5 19V17.4484L19.5 15.4484V19C19.5 20.6569 18.1569 22 16.5 22H6.5C4.84315 22 3.5 20.6569 3.5 19V5C3.5 3.34315 4.84315 2 6.5 2H16.5C18.1569 2 19.5 3.34315 19.5 5V8.607L17.5 10.607V5C17.5 4.44772 17.0523 4 16.5 4ZM7.5 7C8.05228 7 8.5 6.55228 8.5 6C8.5 5.44772 8.05228 5 7.5 5C6.94772 5 6.5 5.44772 6.5 6C6.5 6.55228 6.94772 7 7.5 7ZM7.5 10C8.05228 10 8.5 9.55228 8.5 9C8.5 8.44772 8.05228 8 7.5 8C6.94772 8 6.5 8.44772 6.5 9C6.5 9.55228 6.94772 10 7.5 10ZM8.5 15C8.5 15.5523 8.05228 16 7.5 16C6.94772 16 6.5 15.5523 6.5 15C6.5 14.4477 6.94772 14 7.5 14C8.05228 14 8.5 14.4477 8.5 15ZM7.5 19C8.05228 19 8.5 18.5523 8.5 18C8.5 17.4477 8.05228 17 7.5 17C6.94772 17 6.5 17.4477 6.5 18C6.5 18.5523 6.94772 19 7.5 19ZM11.5 12C11.5 12.5523 11.0523 13 10.5 13C9.94772 13 9.5 12.5523 9.5 12C9.5 11.4477 9.94772 11 10.5 11C11.0523 11 11.5 11.4477 11.5 12ZM10 5.5C9.72386 5.5 9.5 5.72386 9.5 6C9.5 6.27614 9.72386 6.5 10 6.5H16C16.2761 6.5 16.5 6.27614 16.5 6C16.5 5.72386 16.2761 5.5 16 5.5H10ZM9.5 9C9.5 8.72386 9.72386 8.5 10 8.5H15C15.2761 8.5 15.5 8.72386 15.5 9C15.5 9.27614 15.2761 9.5 15 9.5H10C9.72386 9.5 9.5 9.27614 9.5 9ZM12.5 11.5C12.2239 11.5 12 11.7239 12 12C12 12.2761 12.2239 12.5 12.5 12.5H16C16.2761 12.5 16.5 12.2761 16.5 12C16.5 11.7239 16.2761 11.5 16 11.5H12.5ZM9 15C9 14.7239 9.22386 14.5 9.5 14.5H13.5C13.7761 14.5 14 14.7239 14 15C14 15.2761 13.7761 15.5 13.5 15.5H9.5C9.22386 15.5 9 15.2761 9 15ZM9.5 17.5C9.22386 17.5 9 17.7239 9 18C9 18.2761 9.22386 18.5 9.5 18.5H11C11.2761 18.5 11.5 18.2761 11.5 18C11.5 17.7239 11.2761 17.5 11 17.5H9.5ZM21.75 9.75C21.3358 9.33579 20.6642 9.33579 20.25 9.75L12.6959 17.3041C12.5677 17.4323 12.4768 17.5929 12.4328 17.7687L12 19.5L13.7313 19.0672C13.9071 19.0232 14.0677 18.9323 14.1959 18.8041L21.75 11.25C22.1642 10.8358 22.1642 10.1642 21.75 9.75Z" fill="white"/>
</svg>
