<svg width="32" height="32" viewBox="0 0 32 32" fill="none" xmlns="http://www.w3.org/2000/svg">
<path fill-rule="evenodd" clip-rule="evenodd" d="M22.3333 4.66667H7C6.44771 4.66667 6 5.11439 6 5.66667V26.3333C6 26.8856 6.44772 27.3333 7 27.3333H22.3333C22.8856 27.3333 23.3333 26.8856 23.3333 26.3333V22.5979L25.3333 20.5979V26.3333C25.3333 27.9902 23.9902 29.3333 22.3333 29.3333H7C5.34315 29.3333 4 27.9902 4 26.3333V5.66667C4 4.00981 5.34315 2.66667 7 2.66667H22.3333C23.9902 2.66667 25.3333 4.00982 25.3333 5.66667V11.476L23.3333 13.476V5.66667C23.3333 5.11439 22.8856 4.66667 22.3333 4.66667ZM9.33333 9.33334C10.0697 9.33334 10.6667 8.73638 10.6667 8C10.6667 7.26363 10.0697 6.66667 9.33333 6.66667C8.59695 6.66667 8 7.26363 8 8C8 8.73638 8.59695 9.33334 9.33333 9.33334ZM9.33333 13.3333C10.0697 13.3333 10.6667 12.7364 10.6667 12C10.6667 11.2636 10.0697 10.6667 9.33333 10.6667C8.59695 10.6667 8 11.2636 8 12C8 12.7364 8.59695 13.3333 9.33333 13.3333ZM10.6667 20C10.6667 20.7364 10.0697 21.3333 9.33333 21.3333C8.59695 21.3333 8 20.7364 8 20C8 19.2636 8.59695 18.6667 9.33333 18.6667C10.0697 18.6667 10.6667 19.2636 10.6667 20ZM9.33333 25.3333C10.0697 25.3333 10.6667 24.7364 10.6667 24C10.6667 23.2636 10.0697 22.6667 9.33333 22.6667C8.59695 22.6667 8 23.2636 8 24C8 24.7364 8.59695 25.3333 9.33333 25.3333ZM14.6667 16C14.6667 16.7364 14.0697 17.3333 13.3333 17.3333C12.597 17.3333 12 16.7364 12 16C12 15.2636 12.597 14.6667 13.3333 14.6667C14.0697 14.6667 14.6667 15.2636 14.6667 16ZM12.6667 7.33334C12.2985 7.33334 12 7.63181 12 8C12 8.36819 12.2985 8.66667 12.6667 8.66667H20.6667C21.0349 8.66667 21.3333 8.36819 21.3333 8C21.3333 7.63181 21.0349 7.33334 20.6667 7.33334H12.6667ZM12 12C12 11.6318 12.2985 11.3333 12.6667 11.3333H19.3333C19.7015 11.3333 20 11.6318 20 12C20 12.3682 19.7015 12.6667 19.3333 12.6667H12.6667C12.2985 12.6667 12 12.3682 12 12ZM16 15.3333C15.6318 15.3333 15.3333 15.6318 15.3333 16C15.3333 16.3682 15.6318 16.6667 16 16.6667H20.6667C21.0349 16.6667 21.3333 16.3682 21.3333 16C21.3333 15.6318 21.0349 15.3333 20.6667 15.3333H16ZM11.3333 20C11.3333 19.6318 11.6318 19.3333 12 19.3333H17.3333C17.7015 19.3333 18 19.6318 18 20C18 20.3682 17.7015 20.6667 17.3333 20.6667H12C11.6318 20.6667 11.3333 20.3682 11.3333 20ZM12 23.3333C11.6318 23.3333 11.3333 23.6318 11.3333 24C11.3333 24.3682 11.6318 24.6667 12 24.6667H14C14.3682 24.6667 14.6667 24.3682 14.6667 24C14.6667 23.6318 14.3682 23.3333 14 23.3333H12ZM28.3333 13C27.781 12.4477 26.8856 12.4477 26.3333 13L16.1959 23.1375C16.0677 23.2656 15.9768 23.4262 15.9328 23.6021L15.3333 26L17.7313 25.4005C17.9071 25.3566 18.0677 25.2656 18.1959 25.1375L28.3333 15C28.8856 14.4477 28.8856 13.5523 28.3333 13Z" fill="#212121"/>
</svg>
