<svg width="24" height="25" viewBox="0 0 24 25" fill="none" xmlns="http://www.w3.org/2000/svg">
<path d="M21.739 9.73841L16.7389 14.5191C16.2118 15.0231 15.3333 14.6495 15.3333 13.9057V11.3758C10.3134 11.4099 8.19563 12.6102 9.61198 17.3999C9.76764 17.9263 9.16594 18.3339 8.74372 18.0092C7.39069 16.9685 6.16667 14.9781 6.16667 12.969C6.16667 7.90867 10.25 6.9045 15.3333 6.87596V4.34418C15.3333 3.59978 16.2124 3.22734 16.7389 3.73077L21.739 8.5116C22.0869 8.84428 22.0872 9.40545 21.739 9.73841ZM15.3333 16.8287V19.25H4.22222V8.00001H5.99014C6.04625 7.99997 6.10177 7.98845 6.15337 7.96614C6.20497 7.94383 6.25159 7.91119 6.29042 7.87017C6.80962 7.32286 7.40976 6.88967 8.06174 6.54563C8.44819 6.34169 8.305 5.75001 7.8692 5.75001H3.66667C2.74618 5.75001 2 6.50551 2 7.43751V19.8125C2 20.7445 2.74618 21.5 3.66667 21.5H15.8889C16.8094 21.5 17.5556 20.7445 17.5556 19.8125V16.6904C17.5556 16.399 17.2709 16.1959 16.9996 16.2931C16.6192 16.4293 16.2119 16.47 15.8125 16.4118C15.5601 16.375 15.3333 16.5705 15.3333 16.8287Z" fill="white"/>
</svg>
