<svg width="32" height="32" viewBox="0 0 32 32" fill="none" xmlns="http://www.w3.org/2000/svg">
<path fill-rule="evenodd" clip-rule="evenodd" d="M15.0871 3.0282C15.6003 2.54615 16.3998 2.54615 16.9129 3.0282L20.9129 6.78578C21.4496 7.28996 21.476 8.13377 20.9718 8.67047C20.4676 9.20718 19.6238 9.23355 19.0871 8.72937L17.3334 7.08189V18.6667C17.3334 19.403 16.7364 20 16 20C15.2636 20 14.6667 19.403 14.6667 18.6667V7.08189L12.9129 8.72937C12.3762 9.23355 11.5324 9.20718 11.0282 8.67047C10.524 8.13377 10.5504 7.28996 11.0871 6.78578L15.0871 3.0282Z" fill="#212121"/>
<path fill-rule="evenodd" clip-rule="evenodd" d="M10.6667 12H8C5.79086 12 4 13.7909 4 16V25.3333C4 27.5425 5.79086 29.3333 8 29.3333H24C26.2091 29.3333 28 27.5425 28 25.3333V16C28 13.7909 26.2091 12 24 12H21.3334V14.6667H24C24.7364 14.6667 25.3333 15.2636 25.3333 16V25.3333C25.3333 26.0697 24.7364 26.6667 24 26.6667H8C7.26362 26.6667 6.66667 26.0697 6.66667 25.3333V16C6.66667 15.2636 7.26362 14.6667 8 14.6667H10.6667V12Z" fill="#212121"/>
</svg>
