<svg width="25" height="26" viewBox="0 0 25 26" fill="none" xmlns="http://www.w3.org/2000/svg">
<path d="M18.1647 21.2759C19.4407 20.5567 20.5332 19.5521 21.3567 18.3407C22.1801 17.1293 22.7123 15.7439 22.9116 14.2927C23.111 12.8415 22.972 11.364 22.5057 9.97539C22.0393 8.58683 21.2582 7.32492 20.2233 6.28827C19.1884 5.25162 17.9279 4.46831 16.5401 3.99957C15.1523 3.53082 13.675 3.38933 12.2235 3.58615C10.772 3.78298 9.38565 4.31278 8.17284 5.13417C6.96002 5.95555 5.95357 7.04626 5.23214 8.32107L6.96839 9.30364C7.53832 8.29655 8.33342 7.43488 9.29154 6.78599C10.2497 6.1371 11.3449 5.71855 12.4916 5.56306C13.6382 5.40757 14.8053 5.51935 15.9017 5.88966C16.998 6.25997 17.9939 6.87878 18.8114 7.69773C19.6289 8.51668 20.246 9.51359 20.6145 10.6106C20.9829 11.7075 21.0927 12.8748 20.9352 14.0212C20.7777 15.1677 20.3573 16.2621 19.7068 17.2191C19.0562 18.1761 18.1932 18.9698 17.1851 19.538L18.1647 21.2759Z" fill="white"/>
<path d="M9.02905 9.44517L3.91441 6.52252C3.54846 6.31341 3.10385 6.62309 3.17314 7.03884L3.9038 11.4228C3.95431 11.7259 4.26364 11.9121 4.55511 11.815L8.9391 10.3536C9.34911 10.217 9.4043 9.6596 9.02905 9.44517Z" fill="white"/>
<path d="M7.11866 22.3586H5.35528V16.6561L3.99884 17.9875L3 16.986L5.58957 14.5H7.11866V22.3586Z" fill="white"/>
<path d="M8.53839 21.3218L9.50024 20.1907C10.0675 20.7445 10.832 21.039 11.6952 21.039C12.6694 21.039 13.2243 20.5088 13.2243 19.8608C13.2243 19.1421 12.6817 18.6591 11.7445 18.6591C11.0663 18.6591 10.5114 18.8594 10.0182 19.3071L8.79735 18.989V14.5H14.4451V15.9374H10.5114V17.905C10.943 17.5398 11.6089 17.257 12.3611 17.257C13.7545 17.257 15 18.1996 15 19.7901C15 21.4514 13.6929 22.5 11.7075 22.5C10.2771 22.5 9.24128 22.0523 8.53839 21.3218Z" fill="white"/>
</svg>
