<svg width="25" height="26" viewBox="0 0 25 26" fill="none" xmlns="http://www.w3.org/2000/svg">
<path d="M7.8353 21.2759C6.55925 20.5567 5.46681 19.5521 4.64334 18.3407C3.81987 17.1293 3.28768 15.7439 3.08836 14.2927C2.88904 12.8415 3.02799 11.364 3.49435 9.97539C3.96071 8.58683 4.74184 7.32492 5.77671 6.28827C6.81158 5.25162 8.07215 4.46831 9.4599 3.99957C10.8477 3.53082 12.325 3.38933 13.7765 3.58615C15.228 3.78298 16.6143 4.31278 17.8272 5.13417C19.04 5.95555 20.0464 7.04626 20.7679 8.32107L19.0316 9.30364C18.4617 8.29655 17.6666 7.43488 16.7085 6.78599C15.7503 6.1371 14.6551 5.71855 13.5084 5.56306C12.3618 5.40757 11.1947 5.51935 10.0983 5.88966C9.002 6.25997 8.00615 6.87878 7.1886 7.69773C6.37106 8.51668 5.75396 9.51359 5.38554 10.6106C5.01711 11.7075 4.90734 12.8748 5.06481 14.0212C5.22227 15.1677 5.6427 16.2621 6.29324 17.2191C6.94378 18.1761 7.80681 18.9698 8.81488 19.538L7.8353 21.2759Z" fill="white"/>
<path d="M16.9709 9.44517L22.0856 6.52252C22.4515 6.31341 22.8962 6.62309 22.8269 7.03884L22.0962 11.4228C22.0457 11.7259 21.7364 11.9121 21.4449 11.815L17.0609 10.3536C16.6509 10.217 16.5957 9.6596 16.9709 9.44517Z" fill="white"/>
<path d="M14.1187 22.3586H12.3553V16.6561L10.9988 17.9875L10 16.986L12.5896 14.5H14.1187V22.3586Z" fill="white"/>
<path d="M15.5384 21.3218L16.5002 20.1907C17.0675 20.7445 17.832 21.039 18.6952 21.039C19.6694 21.039 20.2243 20.5088 20.2243 19.8608C20.2243 19.1421 19.6817 18.6591 18.7445 18.6591C18.0663 18.6591 17.5114 18.8594 17.0182 19.3071L15.7974 18.989V14.5H21.4451V15.9374H17.5114V17.905C17.943 17.5398 18.6089 17.257 19.3611 17.257C20.7545 17.257 22 18.1996 22 19.7901C22 21.4514 20.6929 22.5 18.7075 22.5C17.2771 22.5 16.2413 22.0523 15.5384 21.3218Z" fill="white"/>
</svg>
