<svg width="305" height="295" viewBox="0 0 305 295" fill="none" xmlns="http://www.w3.org/2000/svg">
<path d="M253.783 117.972C264.717 190.481 228.612 272.774 178.396 272.774C128.18 272.774 79.9906 219.121 79.9906 174.943C79.9906 130.766 36.68 23.0189 86.8962 23.0189C137.112 23.0189 242.849 45.4623 253.783 117.972Z" fill="#E8F7FF" fill-opacity="0.5"/>
<path d="M18.8716 22.7735C19.8097 33.9077 31.7722 47.7417 39.3228 38.8666C46.8734 29.9915 36.7853 20.4016 32.8727 29.3865C28.9601 38.3715 38.166 47.0245 60.2134 40.4079" stroke="#29A7DD" stroke-width="3"/>
<path d="M86.0132 262.588C78.9263 259.788 66.8752 263.384 70.0295 271.054C73.1838 278.724 82.0775 275.054 77.7624 269.735C73.4474 264.415 71.5563 277.96 55.4431 271.054" stroke="#29A7DD" stroke-width="2"/>
<path d="M266.035 249.285C261.048 255.046 258.807 255.78 267.088 255.341C275.37 254.902 275.242 260.336 268.795 262.648C262.347 264.959 264.124 270.468 278.817 278.359" stroke="#EE7979" stroke-width="2"/>
<path d="M272 15.1321C281.89 27.217 260.904 33.2774 269.23 41.6038C276.136 48.5094 284.192 36.2694 272 33.2774C259.809 30.2855 264.653 40.8611 250.239 41.6038" stroke="#DD7129" stroke-width="3"/>
<path d="M15.4157 113.556C15.7502 111.594 14.7444 106.23 16.2205 105.616C17.6967 105.002 21.0187 106.434 24.1218 107.54C24.4437 110.479 24.0614 112.722 22.8794 114.828C19.9472 114.328 15.0812 115.518 15.4157 113.556Z" fill="#E4BFE8"/>
<path d="M185.902 11.2356C186.075 10.2214 185.555 7.44906 186.318 7.13184C187.081 6.81462 188.798 7.55462 190.402 8.12624C190.569 9.64556 190.371 10.8046 189.76 11.8933C188.244 11.6349 185.729 12.2498 185.902 11.2356Z" fill="#E4BFE8"/>
<path d="M286.596 98.1508C286.93 96.1886 285.924 90.8249 287.4 90.2112C288.877 89.5974 292.199 91.0291 295.302 92.1351C295.624 95.0745 295.241 97.317 294.059 99.4232C291.127 98.9234 286.261 100.113 286.596 98.1508Z" fill="#E8DCBF"/>
<path d="M28.7843 256.981C29.1188 255.019 28.113 249.655 29.5892 249.041C31.0654 248.428 34.3873 249.859 37.4905 250.965C37.8123 253.905 37.43 256.147 36.2481 258.253C33.3159 257.754 28.4498 258.943 28.7843 256.981Z" fill="#E8DCBF"/>
<path d="M21.1726 140.604C22.8647 141.652 28.2127 142.738 28.2259 144.337C28.2392 145.935 25.6628 148.474 23.4706 150.934C20.626 150.126 18.6922 148.928 17.1855 147.04C18.7518 144.512 19.4804 139.555 21.1726 140.604Z" fill="#EE7979"/>
<path d="M197.124 29.4659C197.999 30.0077 200.763 30.5692 200.77 31.3954C200.777 32.2217 199.445 33.5341 198.312 34.8052C196.842 34.3876 195.842 33.7685 195.064 32.7928C195.873 31.4858 196.25 28.9242 197.124 29.4659Z" fill="#E8F7FF"/>
<path d="M35.9923 199.806C36.8669 200.347 39.6312 200.909 39.638 201.735C39.6448 202.561 38.3132 203.874 37.1801 205.145C35.7098 204.727 34.7103 204.108 33.9315 203.132C34.7411 201.825 35.1177 199.264 35.9923 199.806Z" fill="#E8F7FF"/>
<path d="M17.8733 75.8056C18.6095 75.0869 19.8191 72.5388 20.6228 72.7308C21.4265 72.9229 22.3802 74.531 23.3415 75.9365C22.5827 77.2632 21.7413 78.0846 20.6071 78.6059C19.5331 77.5058 17.1371 76.5243 17.8733 75.8056Z" fill="#E8F7FF"/>
<path d="M279.226 216.31C279.963 215.591 281.172 213.043 281.976 213.235C282.779 213.427 283.733 215.035 284.695 216.441C283.936 217.767 283.094 218.589 281.96 219.11C280.886 218.01 278.49 217.028 279.226 216.31Z" fill="#E8F7FF"/>
<path d="M294.964 136.057C294.145 135.434 291.447 134.61 291.52 133.787C291.592 132.964 293.043 131.785 294.293 130.628C295.716 131.185 296.652 131.897 297.334 132.943C296.403 134.166 295.782 136.68 294.964 136.057Z" fill="#E8F7FF"/>
<path d="M58.9901 256.875C58.1714 256.252 55.4737 255.429 55.546 254.605C55.6184 253.782 57.0697 252.603 58.3194 251.447C59.7429 252.003 60.6785 252.715 61.3602 253.761C60.4291 254.985 59.8088 257.498 58.9901 256.875Z" fill="#E8F7FF"/>
<path d="M35.2938 237.438C37.8322 233.47 38.8349 237.438 42.6137 234.26C43.8707 235.247 44.2455 238.845 44.7975 242.093C42.3905 243.811 40.2473 244.573 37.8321 244.572C36.8349 241.769 32.7555 241.407 35.2938 237.438Z" fill="#E4BFE8"/>
<path d="M199.259 15.6781C200.941 14.6135 204.254 10.2767 205.698 10.9629C207.142 11.6491 208.301 15.0757 209.556 18.1217C207.587 20.3279 205.665 21.5445 203.309 22.0757C201.718 19.5624 197.577 16.7426 199.259 15.6781Z" fill="#E4BFE8"/>
<path d="M281.532 143.622C282.24 144.837 285.217 147.287 284.695 148.288C284.174 149.29 281.725 150.02 279.543 150.828C278.036 149.381 277.227 147.993 276.912 146.317C278.727 145.258 280.824 142.408 281.532 143.622Z" fill="#E4BFE8"/>
<path d="M51.3437 271.377C52.052 272.592 55.0282 275.041 54.5067 276.043C53.9853 277.045 51.5368 277.775 49.3544 278.582C47.8476 277.136 47.0382 275.748 46.7237 274.071C48.5387 273.013 50.6354 270.163 51.3437 271.377Z" fill="#E4BFE8"/>
<path d="M24.872 128.66C25.5803 129.875 28.5565 132.324 28.0351 133.326C27.5136 134.328 25.0651 135.058 22.8828 135.866C21.376 134.419 20.5665 133.031 20.2521 131.354C22.067 130.296 24.1638 127.446 24.872 128.66Z" fill="#E8DCBF"/>
<rect x="42.585" y="46.6132" width="220.981" height="37.9811" rx="6" fill="#E9E9E9"/>
<g opacity="0.5">
<ellipse cx="243.425" cy="65.6038" rx="9.78302" ry="9.78302" fill="#00C142"/>
<path fill-rule="evenodd" clip-rule="evenodd" d="M250.428 62.6727L241.732 71.4815L236.421 66.1022L238.578 63.9725L241.732 67.1667L248.271 60.543L250.428 62.6727Z" fill="white"/>
</g>
<rect x="42.585" y="99.5566" width="220.981" height="37.9811" rx="6" fill="#E9E9E9"/>
<g opacity="0.5">
<ellipse cx="243.425" cy="118.547" rx="9.78302" ry="9.78302" fill="#00C142"/>
<path fill-rule="evenodd" clip-rule="evenodd" d="M250.428 115.616L241.732 124.425L236.421 119.046L238.578 116.916L241.732 120.11L248.271 113.486L250.428 115.616Z" fill="white"/>
</g>
<rect x="42.585" y="152.5" width="220.981" height="37.9811" rx="6" fill="#E9E9E9"/>
<g opacity="0.5">
<ellipse cx="243.425" cy="171.491" rx="9.78302" ry="9.78302" fill="#00C142"/>
<path fill-rule="evenodd" clip-rule="evenodd" d="M250.428 168.56L241.732 177.368L236.421 171.989L238.578 169.859L241.732 173.053L248.271 166.43L250.428 168.56Z" fill="white"/>
</g>
<rect x="42.585" y="201.991" width="220.981" height="37.9811" rx="6" fill="#E9E9E9"/>
<g opacity="0.5">
<ellipse cx="243.425" cy="220.981" rx="9.78302" ry="9.78302" fill="#00C142"/>
<path fill-rule="evenodd" clip-rule="evenodd" d="M250.428 218.05L241.732 226.859L236.421 221.48L238.578 219.35L241.732 222.544L248.271 215.92L250.428 218.05Z" fill="white"/>
</g>
<ellipse cx="153.075" cy="138.113" rx="72.5094" ry="74.8113" fill="#00C142" fill-opacity="0.2"/>
<ellipse cx="152.5" cy="138.113" rx="55.8207" ry="55.8208" fill="#00C142"/>
<path fill-rule="evenodd" clip-rule="evenodd" d="M192.461 121.389L142.841 171.651L112.539 140.957L124.847 128.805L142.841 147.031L180.152 109.237L192.461 121.389Z" fill="white"/>
</svg>
