<svg width="63" height="63" viewBox="0 0 63 63"  xmlns="http://www.w3.org/2000/svg">
    <path d="M60.9446 33.1628C62.2676 31.4656 63 29.3863 63 27.2228C63 23.7904 61.0234 20.5414 57.8419 18.7296C57.0228 18.2632 56.0903 18.0177 55.1408 18.0186H36.2565L36.729 8.62327C36.8393 6.3528 36.0124 4.19699 34.4059 2.55339C33.6175 1.74326 32.6663 1.0987 31.6112 0.659528C30.556 0.220357 29.4193 -0.00409001 28.2712 5.64191e-05C24.1763 5.64191e-05 20.5538 2.6757 19.467 6.50569L12.7024 30.2807H12.6788V63H49.8724C50.5969 63 51.3056 62.8624 51.9592 62.5872C55.7077 61.0353 58.1254 57.4805 58.1254 53.5359C58.1254 52.5726 57.9836 51.6247 57.7001 50.7073C59.0231 49.0102 59.7555 46.9308 59.7555 44.7674C59.7555 43.8042 59.6138 42.8562 59.3302 41.9389C60.6533 40.2417 61.3856 38.1624 61.3856 35.9989C61.3699 35.0357 61.2281 34.0801 60.9446 33.1628ZM0 32.727V60.5537C0 61.9068 1.12612 63 2.52 63H7.63875V30.2807H2.52C1.12612 30.2807 0 31.3739 0 32.727Z"/>
</svg>
