<svg width="64" height="63" viewBox="0 0 64 63" xmlns="http://www.w3.org/2000/svg">
    <path d="M3.01786 29.4076C1.6741 31.0496 0.903643 33.0823 0.853166 35.2149C0.773081 38.5985 2.64576 41.8474 5.73968 43.7076C6.53618 44.1864 7.44971 44.4502 8.38576 44.4715L27.0011 44.9121L26.3161 54.1626C26.1545 56.3982 26.9193 58.5426 28.4645 60.2002C29.2228 61.0172 30.1454 61.6748 31.1753 62.1323C32.2052 62.5899 33.3205 62.8377 34.4522 62.8604C38.4889 62.9559 42.1223 60.4029 43.2829 56.6528L50.5059 33.3741L50.5292 33.3747L51.2926 1.1213L14.6286 0.253512C13.9144 0.236608 13.2125 0.355719 12.5618 0.611759C8.83048 2.05407 6.36434 5.50183 6.27231 9.39032C6.24983 10.3398 6.36744 11.2776 6.6255 12.1885C5.28174 13.8306 4.51129 15.8633 4.46081 17.9959C4.43834 18.9454 4.55595 19.8832 4.81401 20.7941C3.47025 22.4362 2.69979 24.4688 2.64931 26.6015C2.64236 27.5514 2.7598 28.4966 3.01786 29.4076ZM63.0845 31.259L63.7337 3.82858C63.7653 2.49474 62.6807 1.39084 61.3067 1.35832L56.2608 1.23889L55.4974 33.4923L60.5433 33.6117C61.9173 33.6442 63.0529 32.5929 63.0845 31.259Z"/>
</svg>
