<svg width="24" height="25" viewBox="0 0 24 25" fill="none" xmlns="http://www.w3.org/2000/svg">
<path d="M11.25 20.5C11.25 21.0523 10.8023 21.5 10.25 21.5H9.71549C9.1632 21.5 8.71549 21.0523 8.71549 20.5V6.125L5.17078 9.59362C4.79363 9.96267 4.19464 9.97517 3.80242 9.62218L3.77585 9.59827C3.35285 9.21756 3.33239 8.56108 3.73087 8.15478L8.00197 3.7998C8.19004 3.60804 8.44734 3.5 8.71592 3.5H10.25C10.8023 3.5 11.25 3.94772 11.25 4.5V20.5Z" fill="white"/>
<path d="M20.0107 19.9596C20.4381 20.6251 19.9602 21.5 19.1693 21.5H19.0625C18.7124 21.5 18.3877 21.3169 18.2066 21.0172L16.5605 18.2935L14.7796 21.0436C14.5953 21.3282 14.2793 21.5 13.9402 21.5H13.8587C13.062 21.5 12.5852 20.6138 13.0242 19.949L15.1336 16.7546L13.3337 14.0547C12.8906 13.3901 13.367 12.5 14.1657 12.5H14.2575C14.5953 12.5 14.9102 12.6705 15.0948 12.9532L16.5605 15.1976L18.0091 12.9571C18.1934 12.6721 18.5095 12.5 18.8489 12.5H18.9313C19.7313 12.5 20.2074 13.3927 19.7618 14.0571L17.9523 16.7546L20.0107 19.9596Z" fill="white"/>
</svg>
