<svg width="24" height="24" viewBox="0 0 24 24" fill="none" xmlns="http://www.w3.org/2000/svg">
<path d="M21.739 9.23841L16.7389 14.0191C16.2118 14.5231 15.3333 14.1495 15.3333 13.4057V10.8758C10.3134 10.9099 8.19563 12.1102 9.61198 16.8999C9.76764 17.4263 9.16594 17.8339 8.74372 17.5092C7.39069 16.4685 6.16667 14.4781 6.16667 12.469C6.16667 7.40867 10.25 6.4045 15.3333 6.37596V3.84418C15.3333 3.09978 16.2124 2.72734 16.7389 3.23077L21.739 8.0116C22.0869 8.34428 22.0872 8.90545 21.739 9.23841ZM15.3333 16.3287V18.75H4.22222V7.50001H5.99014C6.04625 7.49997 6.10177 7.48845 6.15337 7.46614C6.20497 7.44383 6.25159 7.41119 6.29042 7.37017C6.80962 6.82286 7.40976 6.38967 8.06174 6.04563C8.44819 5.84169 8.305 5.25001 7.8692 5.25001H3.66667C2.74618 5.25001 2 6.00551 2 6.93751V19.3125C2 20.2445 2.74618 21 3.66667 21H15.8889C16.8094 21 17.5556 20.2445 17.5556 19.3125V16.1904C17.5556 15.899 17.2709 15.6959 16.9996 15.7931C16.6192 15.9293 16.2119 15.97 15.8125 15.9118C15.5601 15.875 15.3333 16.0705 15.3333 16.3287Z" fill="#212121"/>
</svg>
